<?xml version="1.0" encoding="UTF-8"?>
<svg width="1676px" height="1676px" viewBox="0 0 1676 1676" version="1.1" xmlns="http://www.w3.org/2000/svg" xmlns:xlink="http://www.w3.org/1999/xlink">
    <title>Icon</title>
    <g id="Icon" stroke="none" stroke-width="1" fill="none" fill-rule="evenodd">
        <g id="Group" transform="translate(838.500000, 838.000000) rotate(-45.000000) translate(-838.500000, -838.000000) translate(211.000000, 211.000000)" fill-rule="nonzero">
            <path d="M903.933809,369.673906 C896.201446,374.297948 886.184522,371.810774 881.545104,364.139068 L771.358937,181.944798 C766.684373,174.273092 769.179817,164.289364 776.877033,159.665322 L779.056153,158.334158 C786.788516,153.710116 796.80544,156.16226 801.444857,163.868997 L911.666172,346.028236 C916.305589,353.699942 913.810145,363.683669 906.112929,368.342742 L903.933809,369.673906 L903.933809,369.673906 Z" id="Path" fill="#66757F"></path>
            <path d="M884.334281,351.006671 C879.709995,358.652229 882.162268,368.601928 889.869412,373.210209 L1072.03827,482.656894 C1079.74541,487.300087 1089.72967,484.82139 1094.35395,477.175832 L1095.65016,475.011336 C1100.30947,467.365778 1097.82217,457.41608 1090.11503,452.772887 L907.946168,343.326202 C900.274056,338.717921 890.289802,341.161706 885.630483,348.842176 L884.334281,351.006671 L884.334281,351.006671 Z" id="Path" fill="#66757F"></path>
            <path d="M455.766844,1120.00334 L332.006514,946.743118 L307.261448,921.996658 L134.010986,798.264356 C120.32595,784.578548 98.2058909,784.578548 84.5208544,798.264356 L10.2506565,872.503737 C-3.43437995,886.189544 -3.39937986,908.31085 10.2506565,921.996658 L331.971514,1243.73564 C345.65655,1257.42145 367.776609,1257.42145 381.496646,1243.73564 L455.731843,1169.49626 C469.41688,1155.81046 469.41688,1133.65415 455.766844,1120.00334 Z" id="Path" fill="#BE1931"></path>
            <path d="M812.327049,616.116648 C567.249146,861.13385 123.20092,1161.19496 108.520771,1146.47921 C93.8055863,1131.7985 393.855216,687.733287 638.898082,442.681048 C883.905913,197.663846 947.952004,211.258394 995.846427,259.15465 C1043.74085,307.015868 1057.33488,371.064408 812.327049,616.116648 Z" id="Path" fill="#CCD6DD"></path>
            <path d="M1122.36157,156.367472 C1088.23142,190.465359 1055.04447,212.580075 1048.23242,205.767485 C1041.42036,198.954895 1063.53335,165.765352 1097.62856,131.632528 C1131.72378,97.5346409 1164.94565,75.4199249 1171.75771,82.2325151 C1178.6047,89.0800417 1156.45678,122.234648 1122.36157,156.367472 Z" id="Path" fill="#BE1931"></path>
            <path d="M837.723511,589.501685 C810.392425,616.832772 766.053773,616.832772 738.757682,589.501685 L664.498315,515.277313 C637.167228,487.946227 637.167228,443.64257 664.498315,416.276489 L936.68934,144.085463 C964.020427,116.754377 1049.4432,75.6702597 1076.77428,103.001346 L1150.99865,177.225718 C1178.32974,204.556805 1137.24562,289.944578 1109.91454,317.275665 L837.723511,589.501685 L837.723511,589.501685 Z" id="Path" fill="#CCD6DD"></path>
            <path d="M998,106.464094 L1147.56222,256 C1160.30582,225.084475 1166.08245,192.348331 1151.0282,177.258194 L1076.77224,102.997914 C1061.68298,87.9077765 1028.91373,93.6847432 998,106.464094 Z" id="Path" fill="#226699"></path>
            <path d="M1140.76725,124.757707 C1133.91844,131.6047 1100.7576,109.456773 1066.6533,75.3615398 C1032.51406,41.2313735 1010.39519,8.07934899 1017.244,1.23235553 C1024.05788,-5.57970429 1057.25366,16.5332899 1091.35795,50.6634563 C1125.46225,84.758689 1147.58112,117.945647 1140.76725,124.757707 Z" id="Path" fill="#BE1931"></path>
            <path d="M1253.75609,237.767484 C1246.94276,244.580078 1213.74958,222.465351 1179.64795,188.367446 C1145.54633,154.234605 1123.39425,121.079982 1130.24253,114.232452 C1137.05586,107.419858 1170.2141,129.534586 1204.35067,163.667427 C1238.48723,197.765332 1260.60437,230.954891 1253.75609,237.767484 Z" id="Path" fill="#BE1931"></path>
            <path d="M858.021458,347.814013 L906.131838,395.91742 C926.355693,416.138343 945.109994,433.980333 951.093176,457 L953.227528,454.865958 C986.257491,421.805799 986.257491,368.174873 953.227528,335.149698 L918.867968,300.79512 C885.838005,267.73496 832.199304,267.73496 799.134351,300.79512 L797,302.894177 C819.988015,308.876492 837.832592,327.628074 858.021458,347.814013 L858.021458,347.814013 Z" id="Path" fill="#66757F"></path>
            <path d="M763.463308,217.315856 C751.552576,229.227407 732.180121,229.227407 720.269388,217.315856 L713.963707,211.00974 C702.017943,199.063155 702.017943,179.724402 713.928675,167.812851 L769.839053,111.933663 C781.749786,100.022112 801.122241,100.022112 813.032973,111.933663 L819.338655,118.239778 C831.284419,130.186363 831.284419,149.525117 819.373687,161.436668 L763.463308,217.315856 Z M1084.31742,540.539295 C1073.03725,551.820235 1054.75077,551.820235 1043.47061,540.539295 L1034.78278,531.85087 C1023.50262,520.56993 1023.50262,502.282196 1034.78278,490.966223 L1093.00524,432.739759 C1104.28541,421.458819 1122.57188,421.458819 1133.85205,432.739759 L1142.53988,441.428184 C1153.82004,452.709124 1153.82004,470.996858 1142.53988,482.277797 L1084.31742,540.539295 L1084.31742,540.539295 Z" id="Shape" fill="#292F33"></path>
            <path d="M134.510017,947.006987 L109.445821,921.94419 L59.6324825,872.133631 C46.1202205,858.622123 24.241558,858.622123 10.7292961,872.133631 L10.1341965,872.728697 C-3.37806549,886.275209 -3.37806549,908.152651 10.1341965,921.629155 L59.9475352,971.439714 L84.9767251,996.502511 L109.445821,1020.93524 L133.914917,996.502511 L134.510017,995.942449 L158.944107,971.439714 L134.510017,947.006987 Z M381.756406,1194.23958 L331.347968,1143.83395 L307.508977,1119.99629 L282.759834,1095.24853 L233.261548,1144.74406 L258.010691,1169.49182 L281.849682,1193.32948 L332.25812,1243.7351 C345.945411,1257.42163 368.069115,1257.42163 381.791412,1243.7351 C395.408691,1230.04858 395.408691,1207.8911 381.756406,1194.23958 L381.756406,1194.23958 Z" id="Shape" fill="#EA596E"></path>
            <path d="M248.591103,1026.18789 C176.913704,1097.8775 114.130326,1151.32075 108.422746,1145.57718 C102.68015,1139.86863 156.114303,1077.07455 227.826717,1005.38495 C299.504116,933.66032 362.287495,880.217067 368.030091,885.960641 C373.737671,891.704215 320.303518,954.463264 248.591103,1026.18789 Z M1229.48948,805.480565 L447.621067,23.5140141 C420.273705,-3.83800471 375.943668,-3.83800471 348.561291,23.5140141 L259.761152,126.828298 L547.836365,499.495177 L754.429747,706.088722 L1126.19279,993.407496 L1229.48948,904.557212 C1256.83684,877.240215 1256.83684,832.832584 1229.48948,805.480565 Z" id="Shape" fill="#BE1931"></path>
            <path d="M577.376642,361.661314 L297.750365,82 L259,127.056934 L500.121168,438.916788 L577.376642,361.661314 Z M1171,955.284672 L874.69635,658.945985 L795.19854,738.443796 L1125.94307,994 L1171,955.284672 Z" id="Shape" fill="#EA596E"></path>
        </g>
    </g>
</svg>